HIERARCHY
ROOT Hips
{
	OFFSET -14.64140 90.27770 -84.91600
	CHANNELS 6 Xposition Yposition Zposition Zrotation Xrotation Yrotation
	JOINT Spine
	{
		OFFSET 0.00000 13.20850 -1.60436
		CHANNELS 3 Zrotation Xrotation Yrotation
		JOINT Spine1
		{
			OFFSET 0.00000 8.61716 0.00000
			CHANNELS 3 Zrotation Xrotation Yrotation
			JOINT Spine2
			{
				OFFSET 0.00000 8.61717 0.00000
				CHANNELS 3 Zrotation Xrotation Yrotation
				JOINT Spine3
				{
					OFFSET 0.00000 8.61717 0.00000
					CHANNELS 3 Zrotation Xrotation Yrotation
					JOINT Neck
					{
						OFFSET 0.00000 11.07920 1.10792
						CHANNELS 3 Zrotation Xrotation Yrotation
						JOINT Neck1
						{
							OFFSET 0.00000 7.08032 0.00000
							CHANNELS 3 Zrotation Xrotation Yrotation
							JOINT Head
							{
								OFFSET 0.00000 7.08031 0.00000
								CHANNELS 3 Zrotation Xrotation Yrotation
								End site
								{
									OFFSET 0.00000 0.00000 0.00000
								}
							}
						}
					}
					JOINT RightShoulder
					{
						OFFSET -0.01000 7.91373 5.19711
						CHANNELS 3 Zrotation Xrotation Yrotation
						JOINT RightArm
						{
							OFFSET -18.41580 0.00000 0.00000
							CHANNELS 3 Zrotation Xrotation Yrotation
							JOINT RightForeArm
							{
								OFFSET -29.11090 0.00000 0.00000
								CHANNELS 3 Zrotation Xrotation Yrotation
								JOINT RightHand
								{
									OFFSET -24.65040 0.00000 0.00000
									CHANNELS 3 Zrotation Xrotation Yrotation
									JOINT RightHandThumb1
									{
										OFFSET -5.35114 -0.85590 3.97906
										CHANNELS 3 Zrotation Xrotation Yrotation
										JOINT RightHandThumb2
										{
											OFFSET -4.52789 0.00000 0.00000
											CHANNELS 3 Zrotation Xrotation Yrotation
											JOINT RightHandThumb3
											{
												OFFSET -2.46976 0.00000 0.00000
												CHANNELS 3 Zrotation Xrotation Yrotation
												End site
												{
													OFFSET 0.00000 0.00000 0.00000
												}
											}
										}
									}
									JOINT RightHandIndex1
									{
										OFFSET -14.26970 0.00000 2.88139
										CHANNELS 3 Zrotation Xrotation Yrotation
										JOINT RightHandIndex2
										{
											OFFSET -5.48836 0.00000 0.00000
											CHANNELS 3 Zrotation Xrotation Yrotation
											JOINT RightHandIndex3
											{
												OFFSET -3.01859 0.00000 0.00000
												CHANNELS 3 Zrotation Xrotation Yrotation
												End site
												{
													OFFSET 0.00000 0.00000 0.00000
												}
											}
										}
									}
									JOINT RightHandMiddle1
									{
										OFFSET -14.26970 0.00000 -0.09147
										CHANNELS 3 Zrotation Xrotation Yrotation
										JOINT RightHandMiddle2
										{
											OFFSET -6.17441 0.00000 0.00000
											CHANNELS 3 Zrotation Xrotation Yrotation
											JOINT RightHandMiddle3
											{
												OFFSET -3.56743 0.00000 0.00000
												CHANNELS 3 Zrotation Xrotation Yrotation
												End site
												{
													OFFSET 0.00000 0.00000 0.00000
												}
											}
										}
									}
									JOINT RightHandRing1
									{
										OFFSET -12.69180 0.00000 -3.06433
										CHANNELS 3 Zrotation Xrotation Yrotation
										JOINT RightHandRing2
										{
											OFFSET -5.62556 0.00000 0.00000
											CHANNELS 3 Zrotation Xrotation Yrotation
											JOINT RightHandRing3
											{
												OFFSET -3.56744 0.00000 0.00000
												CHANNELS 3 Zrotation Xrotation Yrotation
												End site
												{
													OFFSET 0.00000 0.00000 0.00000
												}
											}
										}
									}
									JOINT RightHandPinky1
									{
										OFFSET -11.11390 0.00000 -6.03719
										CHANNELS 3 Zrotation Xrotation Yrotation
										JOINT RightHandPinky2
										{
											OFFSET -4.52789 0.00000 0.00000
											CHANNELS 3 Zrotation Xrotation Yrotation
											JOINT RightHandPinky3
											{
												OFFSET -2.46976 0.00000 0.00000
												CHANNELS 3 Zrotation Xrotation Yrotation
												End site
												{
													OFFSET 0.00000 0.00000 0.00000
												}
											}
										}
									}
								}
							}
						}
					}
					JOINT LeftShoulder
					{
						OFFSET 0.01000 7.91373 5.19711
						CHANNELS 3 Zrotation Xrotation Yrotation
						JOINT LeftArm
						{
							OFFSET 18.41580 0.00000 0.00000
							CHANNELS 3 Zrotation Xrotation Yrotation
							JOINT LeftForeArm
							{
								OFFSET 29.11090 0.00000 0.00000
								CHANNELS 3 Zrotation Xrotation Yrotation
								JOINT LeftHand
								{
									OFFSET 24.65040 0.00000 0.00000
									CHANNELS 3 Zrotation Xrotation Yrotation
									JOINT LeftHandThumb1
									{
										OFFSET 5.35114 -0.85590 3.97906
										CHANNELS 3 Zrotation Xrotation Yrotation
										JOINT LeftHandThumb2
										{
											OFFSET 4.52789 0.00000 0.00000
											CHANNELS 3 Zrotation Xrotation Yrotation
											JOINT LeftHandThumb3
											{
												OFFSET 2.46977 0.00000 0.00000
												CHANNELS 3 Zrotation Xrotation Yrotation
												End site
												{
													OFFSET 0.00000 0.00000 0.00000
												}
											}
										}
									}
									JOINT LeftHandIndex1
									{
										OFFSET 14.26970 0.00000 2.88139
										CHANNELS 3 Zrotation Xrotation Yrotation
										JOINT LeftHandIndex2
										{
											OFFSET 5.48836 0.00000 0.00000
											CHANNELS 3 Zrotation Xrotation Yrotation
											JOINT LeftHandIndex3
											{
												OFFSET 3.01859 0.00000 0.00000
												CHANNELS 3 Zrotation Xrotation Yrotation
												End site
												{
													OFFSET 0.00000 0.00000 0.00000
												}
											}
										}
									}
									JOINT LeftHandMiddle1
									{
										OFFSET 14.26970 0.00000 -0.09147
										CHANNELS 3 Zrotation Xrotation Yrotation
										JOINT LeftHandMiddle2
										{
											OFFSET 6.17440 0.00000 0.00000
											CHANNELS 3 Zrotation Xrotation Yrotation
											JOINT LeftHandMiddle3
											{
												OFFSET 3.56744 0.00000 0.00000
												CHANNELS 3 Zrotation Xrotation Yrotation
												End site
												{
													OFFSET 0.00000 0.00000 0.00000
												}
											}
										}
									}
									JOINT LeftHandRing1
									{
										OFFSET 12.69180 0.00000 -3.06433
										CHANNELS 3 Zrotation Xrotation Yrotation
										JOINT LeftHandRing2
										{
											OFFSET 5.62556 0.00000 0.00000
											CHANNELS 3 Zrotation Xrotation Yrotation
											JOINT LeftHandRing3
											{
												OFFSET 3.56744 0.00000 0.00000
												CHANNELS 3 Zrotation Xrotation Yrotation
												End site
												{
													OFFSET 0.00000 0.00000 0.00000
												}
											}
										}
									}
									JOINT LeftHandPinky1
									{
										OFFSET 11.11390 0.00000 -6.03719
										CHANNELS 3 Zrotation Xrotation Yrotation
										JOINT LeftHandPinky2
										{
											OFFSET 4.52789 0.00000 0.00000
											CHANNELS 3 Zrotation Xrotation Yrotation
											JOINT LeftHandPinky3
											{
												OFFSET 2.46976 0.00000 0.00000
												CHANNELS 3 Zrotation Xrotation Yrotation
												End site
												{
													OFFSET 0.00000 0.00000 0.00000
												}
											}
										}
									}
								}
							}
						}
					}
					JOINT pCube4
					{
						OFFSET 0.00000 10.91090 1.10792
						CHANNELS 3 Zrotation Xrotation Yrotation
						End site
						{
							OFFSET 0.00000 0.00000 0.00000
						}
					}
				}
			}
		}
	}
	JOINT RightUpLeg
	{
		OFFSET -9.98441 0.00000 0.00000
		CHANNELS 3 Zrotation Xrotation Yrotation
		JOINT RightLeg
		{
			OFFSET 0.00000 -42.11790 0.00000
			CHANNELS 3 Zrotation Xrotation Yrotation
			JOINT RightFoot
			{
				OFFSET 0.00000 -45.00020 -0.00001
				CHANNELS 3 Zrotation Xrotation Yrotation
				JOINT RightForeFoot
				{
					OFFSET 0.00000 -3.74820 0.00000
					CHANNELS 3 Zrotation Xrotation Yrotation
					JOINT RightToeBase
					{
						OFFSET 0.00000 0.06325 14.43120
						CHANNELS 3 Zrotation Xrotation Yrotation
						End site
						{
							OFFSET 0.00000 0.00000 0.00000
						}
					}
				}
			}
		}
	}
	JOINT LeftUpLeg
	{
		OFFSET 9.98441 0.00000 0.00000
		CHANNELS 3 Zrotation Xrotation Yrotation
		JOINT LeftLeg
		{
			OFFSET 0.00000 -42.11800 0.00000
			CHANNELS 3 Zrotation Xrotation Yrotation
			JOINT LeftFoot
			{
				OFFSET 0.00000 -45.00070 0.00000
				CHANNELS 3 Zrotation Xrotation Yrotation
				JOINT LeftForeFoot
				{
					OFFSET 0.00000 -3.74824 0.00000
					CHANNELS 3 Zrotation Xrotation Yrotation
					JOINT LeftToeBase
					{
						OFFSET 0.00000 0.06325 14.43110
						CHANNELS 3 Zrotation Xrotation Yrotation
						End site
						{
							OFFSET 0.00000 0.00000 0.00000
						}
					}
				}
			}
		}
	}
}
MOTION
Frames: 4
Frame Time: 0.050000
0.0 0.0 0.0 -0.0 0.0 -0.0 -0.9568683020476659 2.3779639921076816 0.22006797369368247 0.9163180472310511 4.770866251571868 -0.2756597417799923 0.813092582641968 -1.7564567669574993 1.6178469526286352 -1.358280903709251 2.790799895276068 0.9855943857510889 0.37919765443756204 20.7961488336039 -3.8676737189066306 -0.7173702545725341 -3.7223021591670773 -7.97877657834865 0.5791189855248988 -21.164719666153854 -0.6006390705583223 -10.708804729591593 3.5266448729008757 -18.649033109725742 70.20283385868245 15.062504601853638 45.12241478598336 79.84904626881216 39.0540045869958 106.40260417677419 15.115538164480188 0.02412755156257596 -4.000261200305829 18.9311 2.54346 7.37475 -9.04371e-06 3.54899e-06 -4.32387e-05 -3.68096e-08 -1.66657e-06 -4.96815e-07 23.5337 6.68949e-08 -1.01697e-06 2.75368e-05 2.14518e-06 1.42979e-06 2.73329e-16 1.59028e-15 -3.97569e-16 22.1614 -9.89811e-07 5.49825e-08 3.40419e-15 1.59028e-15 -0.0 2.41026e-15 1.59028e-15 3.97569e-16 19.9077 2.27295e-07 -7.36555e-07 -4.32225e-08 -2.16218e-07 3.64607e-07 4.32225e-08 2.16218e-07 -3.64607e-07 38.193 -4.53822e-07 1.24383e-06 2.19231e-07 -1.66512e-07 -1.8884e-06 1.20312e-08 1.09974e-06 -4.77587e-07 5.111868217925369 1.6369632475643878 17.8678689296988 -68.83020641052711 4.820536753289201 -17.14391371277335 -43.878441388959665 35.10552417050727 -123.62814657839793 1.018508898923194 -0.32410202730223175 -5.3155883804021 -51.241 -2.15194 1.733 -1.00229e-07 2.61503e-08 2.56766e-08 2.50573e-07 -6.53758e-08 -6.41915e-08 -98.905 3.07283e-06 5.77793e-06 -3.46694e-07 3.93323e-06 -9.36473e-07 -4.17448e-15 3.18055e-15 -1.98785e-15 -114.954 1.95246e-07 -1.12147e-06 -5.19297e-05 -6.62049e-09 1.05888e-07 3.18055e-15 3.18055e-15 -3.18055e-15 -76.4715 4.54206e-06 1.80044e-06 -1.02088e-06 -4.55624e-07 1.06351e-06 -7.15625e-15 9.54166e-15 -4.77083e-15 -60.0813 1.77514e-06 3.7447e-07 -5.74098e-06 1.2485e-06 3.00368e-06 8.066e-07 -1.8194e-07 -2.04785e-07 -1.63997e-15 0.0 -0.0 -8.11753 -22.1861 -12.106 2.32833e-05 12.3778 2.61784e-06 5.49049 -9.10614 0.712091 7.45443e-16 0.0 -1.98785e-16 -1.23443e-07 5.39368 -7.43938e-09 -0.0574809 0.352809 21.6824 -1.80349e-06 24.9058 -3.38722e-05 -7.98143 -15.8052 -1.32255 7.95139e-16 0.0 9.54166e-15 -2.108e-07 -11.4331 6.95949e-06
0.0 0.0 0.0 -0.0 0.0 -0.0 -1.1142199324195365 2.505896149777561 0.3788673381875248 0.8535812500866766 4.763122621674555 -0.23660088947335095 0.7471038179731078 -1.7786014768785532 1.8620878995465688 -1.722174202019428 2.930761425299125 1.013674148493584 0.1461393031037138 22.646530720793894 -3.7875033020347684 -0.9075388361827106 -3.2159221228244452 -8.563889517964029 0.32123972523000105 -20.295561665504064 -0.6297862282495379 -11.401184073233596 3.9132175696705724 -18.678634354367112 67.57925932112173 17.544865989942128 46.90216952623542 81.39824712457826 31.096595649127945 104.30258137757554 11.257375779609328 -0.18665089349866631 -1.728447863056462 18.9311 2.54346 7.37475 -9.04371e-06 3.54899e-06 -4.32387e-05 -3.68096e-08 -1.66657e-06 -4.96815e-07 23.5337 6.68949e-08 -1.01697e-06 2.75368e-05 2.14518e-06 1.42979e-06 2.73329e-16 1.59028e-15 -3.97569e-16 22.1614 -9.89811e-07 5.49825e-08 3.40419e-15 1.59028e-15 -0.0 2.41026e-15 1.59028e-15 3.97569e-16 19.9077 2.27295e-07 -7.36555e-07 -4.32225e-08 -2.16218e-07 3.64607e-07 4.32225e-08 2.16218e-07 -3.64607e-07 38.193 -4.53822e-07 1.24383e-06 2.19231e-07 -1.66512e-07 -1.8884e-06 1.20312e-08 1.09974e-06 -4.77587e-07 5.621082832653499 1.8808135539682607 18.519639423320754 -67.59010610204787 4.938922158783047 -19.68429172260393 -43.5009701791679 28.305565383293985 -118.71150219505819 -0.16919104680535982 -0.5445669680709122 -3.6273904008710383 -51.241 -2.15194 1.733 -1.00229e-07 2.61503e-08 2.56766e-08 2.50573e-07 -6.53758e-08 -6.41915e-08 -98.905 3.07283e-06 5.77793e-06 -3.46694e-07 3.93323e-06 -9.36473e-07 -4.17448e-15 3.18055e-15 -1.98785e-15 -114.954 1.95246e-07 -1.12147e-06 -5.19297e-05 -6.62049e-09 1.05888e-07 3.18055e-15 3.18055e-15 -3.18055e-15 -76.4715 4.54206e-06 1.80044e-06 -1.02088e-06 -4.55624e-07 1.06351e-06 -7.15625e-15 9.54166e-15 -4.77083e-15 -60.0813 1.77514e-06 3.7447e-07 -5.74098e-06 1.2485e-06 3.00368e-06 8.066e-07 -1.8194e-07 -2.04785e-07 -1.63997e-15 0.0 -0.0 -8.11753 -22.1861 -12.106 2.32833e-05 12.3778 2.61784e-06 5.49049 -9.10614 0.712091 7.45443e-16 0.0 -1.98785e-16 -1.23443e-07 5.39368 -7.43938e-09 -0.0574809 0.352809 21.6824 -1.80349e-06 24.9058 -3.38722e-05 -7.98143 -15.8052 -1.32255 7.95139e-16 0.0 9.54166e-15 -2.108e-07 -11.4331 6.95949e-06
0.0 0.0 0.0 -0.0 0.0 -0.0 -0.620246223755793 1.8059239290143894 0.29238066121041806 0.7694138711386758 4.654164659887934 -0.19714424439188638 0.675301993231402 -1.6802713010502877 2.9137492120181334 -2.073087593359348 2.9389052906220954 1.2490691693060323 -0.30180149517784416 21.412106353790996 -3.6201370736706564 -0.841952418355895 -3.9922187209636637 -9.221297802264905 0.625581143299765 -21.244113606328675 -0.6614860593959614 -10.387352085749107 3.306528193357645 -17.36346008885429 64.82343067613789 17.28465456963546 45.20839504668906 87.89510070778981 29.254769920079397 99.72098235206181 2.8349692551920147 -0.26979217283784185 -0.6353892013582718 18.9311 2.54346 7.37475 -9.04371e-06 3.54899e-06 -4.32387e-05 -3.68096e-08 -1.66657e-06 -4.96815e-07 23.5337 6.68949e-08 -1.01697e-06 2.75368e-05 2.14518e-06 1.42979e-06 2.73329e-16 1.59028e-15 -3.97569e-16 22.1614 -9.89811e-07 5.49825e-08 3.40419e-15 1.59028e-15 -0.0 2.41026e-15 1.59028e-15 3.97569e-16 19.9077 2.27295e-07 -7.36555e-07 -4.32225e-08 -2.16218e-07 3.64607e-07 4.32225e-08 2.16218e-07 -3.64607e-07 38.193 -4.53822e-07 1.24383e-06 2.19231e-07 -1.66512e-07 -1.8884e-06 1.20312e-08 1.09974e-06 -4.77587e-07 4.662510025456604 1.5957455460672754 18.838287007233443 -65.9570107291151 2.090594948247866 -16.803083103294746 -48.74811452849482 30.787623646186084 -117.86969146792121 10.430009818000238 -0.3586681548174283 -3.2249270925322056 -51.241 -2.15194 1.733 -1.00229e-07 2.61503e-08 2.56766e-08 2.50573e-07 -6.53758e-08 -6.41915e-08 -98.905 3.07283e-06 5.77793e-06 -3.46694e-07 3.93323e-06 -9.36473e-07 -4.17448e-15 3.18055e-15 -1.98785e-15 -114.954 1.95246e-07 -1.12147e-06 -5.19297e-05 -6.62049e-09 1.05888e-07 3.18055e-15 3.18055e-15 -3.18055e-15 -76.4715 4.54206e-06 1.80044e-06 -1.02088e-06 -4.55624e-07 1.06351e-06 -7.15625e-15 9.54166e-15 -4.77083e-15 -60.0813 1.77514e-06 3.7447e-07 -5.74098e-06 1.2485e-06 3.00368e-06 8.066e-07 -1.8194e-07 -2.04785e-07 -1.63997e-15 0.0 -0.0 -8.11753 -22.1861 -12.106 2.32833e-05 12.3778 2.61784e-06 5.49049 -9.10614 0.712091 7.45443e-16 0.0 -1.98785e-16 -1.23443e-07 5.39368 -7.43938e-09 -0.0574809 0.352809 21.6824 -1.80349e-06 24.9058 -3.38722e-05 -7.98143 -15.8052 -1.32255 7.95139e-16 0.0 9.54166e-15 -2.108e-07 -11.4331 6.95949e-06
0.0 0.0 0.0 -0.0 0.0 -0.0 0.2246221295755932 1.8624749143908428 0.44131065945864556 0.7478369951981793 4.553564007128924 -0.21658008420437616 0.7958994750379997 -1.6480779349020076 2.730972223339457 -2.05381656580783 2.7107367143162207 1.2436773236100962 -0.9478205439010202 20.16505173479681 -3.227311001867082 -0.6729376624938451 -3.5122309753132788 -9.222310575605151 0.6358711656985565 -20.50938946439861 -0.6767471536883557 -10.180640098926311 3.0042680644796307 -16.066171222119056 67.19956082569958 14.92488691984706 41.45085820102831 82.13254174487734 29.777545184585037 101.67109003695363 0.11747059370875203 -0.4970401314017474 -1.0641497421386994 18.9311 2.54346 7.37475 -9.04371e-06 3.54899e-06 -4.32387e-05 -3.68096e-08 -1.66657e-06 -4.96815e-07 23.5337 6.68949e-08 -1.01697e-06 2.75368e-05 2.14518e-06 1.42979e-06 2.73329e-16 1.59028e-15 -3.97569e-16 22.1614 -9.89811e-07 5.49825e-08 3.40419e-15 1.59028e-15 -0.0 2.41026e-15 1.59028e-15 3.97569e-16 19.9077 2.27295e-07 -7.36555e-07 -4.32225e-08 -2.16218e-07 3.64607e-07 4.32225e-08 2.16218e-07 -3.64607e-07 38.193 -4.53822e-07 1.24383e-06 2.19231e-07 -1.66512e-07 -1.8884e-06 1.20312e-08 1.09974e-06 -4.77587e-07 5.113110369029643 1.7413263132221608 18.872077363611954 -66.15410437088126 1.5197870475952273 -20.158116834461502 -31.529907639326094 20.903318586378703 -117.69072792232704 14.167897714490898 -0.3771469744335341 -5.690008373787299 -51.241 -2.15194 1.733 -1.00229e-07 2.61503e-08 2.56766e-08 2.50573e-07 -6.53758e-08 -6.41915e-08 -98.905 3.07283e-06 5.77793e-06 -3.46694e-07 3.93323e-06 -9.36473e-07 -4.17448e-15 3.18055e-15 -1.98785e-15 -114.954 1.95246e-07 -1.12147e-06 -5.19297e-05 -6.62049e-09 1.05888e-07 3.18055e-15 3.18055e-15 -3.18055e-15 -76.4715 4.54206e-06 1.80044e-06 -1.02088e-06 -4.55624e-07 1.06351e-06 -7.15625e-15 9.54166e-15 -4.77083e-15 -60.0813 1.77514e-06 3.7447e-07 -5.74098e-06 1.2485e-06 3.00368e-06 8.066e-07 -1.8194e-07 -2.04785e-07 -1.63997e-15 0.0 -0.0 -8.11753 -22.1861 -12.106 2.32833e-05 12.3778 2.61784e-06 5.49049 -9.10614 0.712091 7.45443e-16 0.0 -1.98785e-16 -1.23443e-07 5.39368 -7.43938e-09 -0.0574809 0.352809 21.6824 -1.80349e-06 24.9058 -3.38722e-05 -7.98143 -15.8052 -1.32255 7.95139e-16 0.0 9.54166e-15 -2.108e-07 -11.4331 6.95949e-06
